<svg fill="#000000" xmlns="http://www.w3.org/2000/svg"  viewBox="0 0 64 64" width="48px" height="48px"><path d="M 31.820312 12 C 13.439312 12 12 13.439312 12 31.820312 L 12 32.179688 C 12 50.560688 13.439312 52 31.820312 52 L 32.179688 52 C 50.560688 52 52 50.560688 52 32.179688 L 52 32 C 52 13.452 50.548 12 32 12 L 31.820312 12 z M 28 16 L 36 16 C 47.129 16 48 16.871 48 28 L 48 36 C 48 47.129 47.129 48 36 48 L 28 48 C 16.871 48 16 47.129 16 36 L 16 28 C 16 16.871 16.871 16 28 16 z M 41.994141 20 C 40.889141 20.003 39.997 20.900859 40 22.005859 C 40.003 23.110859 40.900859 24.003 42.005859 24 C 43.110859 23.997 44.003 23.099141 44 21.994141 C 43.997 20.889141 43.099141 19.997 41.994141 20 z M 31.976562 22 C 26.454563 22.013 21.987 26.501437 22 32.023438 C 22.013 37.545437 26.501437 42.013 32.023438 42 C 37.545437 41.987 42.013 37.498562 42 31.976562 C 41.987 26.454563 37.498562 21.987 31.976562 22 z M 31.986328 26 C 35.299328 25.992 37.992 28.673328 38 31.986328 C 38.007 35.299328 35.326672 37.992 32.013672 38 C 28.700672 38.008 26.008 35.327672 26 32.013672 C 25.992 28.700672 28.673328 26.008 31.986328 26 z"/></svg>