<svg fill="#000000" xmlns="http://www.w3.org/2000/svg"  viewBox="0 0 50 50" width="25px" height="25px"><path d="M44,14.215c-1.045,1.562-2.368,2.935-3.892,4.035c0.015,0.335,0.022,0.671,0.022,1.008c0,10.302-7.839,22.181-22.179,22.181	c-4.403,0-10.141-1.542-11.951-3.502c0.611,0.073,1.232,0.11,1.86,0.11c3.654,0,7.015-1.247,9.682-3.338	c-3.411-0.063-6.29-2.318-7.283-5.415c1.552,0.244,3.521-0.134,3.521-0.134s-6.096-1.046-6.254-7.741	c1.763,1.022,3.531,0.975,3.531,0.975s-3.516-2.164-3.467-6.488c0.029-2.55,1.054-3.921,1.054-3.921	c6.661,8.202,16.069,8.146,16.069,8.146s-0.202-1.165-0.202-1.776c0-4.304,3.49-7.796,7.796-7.796c2.242,0,4.268,0.947,5.69,2.463	c1.777-0.351,3.446-1,4.951-1.893c-0.68,2.723-3.427,4.313-3.427,4.313S41.873,15.182,44,14.215z"/></svg>